<svg viewBox="0 0 520 510"  xmlns="http://www.w3.org/2000/svg" version="1.1">
 <g>
  <g>
   <g>
    <g>
     <path fill="#48BB78" d="m461.8025,99.53501l0,-44.198c0,-4.476 -3.627,-8.103 -8.103,-8.103s-8.103,3.627 -8.103,8.103c0,5.179 -4.283,11.87 -8.985,14.039l-116.393,53.67c-10.322,4.757 -18.407,17.39 -18.407,28.758l0,12.821l-84.478,-38.955l98.913,-45.61c10.323,-4.758 18.408,-17.391 18.408,-28.756l0,-44.2c0,-4.476 -3.628,-8.103 -8.103,-8.103c-4.476,0 -8.103,3.627 -8.103,8.103c0,5.179 -4.284,11.87 -8.987,14.039l-116.387,53.67c-10.325,4.755 -18.411,17.388 -18.411,28.758l0,25.394l-91.274,-42.087c-4.703,-2.168 -8.985,-8.86 -8.985,-14.039c0,-4.476 -3.627,-8.103 -8.103,-8.103c-4.476,0 -8.103,3.627 -8.103,8.103l0,44.198c0,11.367 8.084,23.998 18.406,28.756l98.916,45.61l-98.914,45.608c-10.323,4.756 -18.408,17.389 -18.408,28.758l0,44.196c0,11.367 8.084,23.998 18.406,28.756l98.914,45.61l-98.918,45.612c-10.321,4.762 -18.403,17.393 -18.403,28.755l0,44.198c0,4.476 3.627,8.103 8.103,8.103c4.476,0 8.103,-3.627 8.103,-8.103c0,-5.179 4.283,-11.87 8.985,-14.039l116.392,-53.671c10.323,-4.76 18.408,-17.391 18.408,-28.754l0,-25.396l91.27,42.087c4.703,2.17 8.987,8.861 8.987,14.039c0,4.475 3.627,8.103 8.103,8.103c4.475,0 8.103,-3.628 8.103,-8.103l0,-12.821l101.959,47.017c4.702,2.167 8.984,8.858 8.984,14.037c0,4.476 3.627,8.103 8.103,8.103c4.476,0 8.103,-3.627 8.103,-8.103l0,-44.198c0,-11.363 -8.084,-23.994 -18.406,-28.756l-98.915,-45.609l98.915,-45.61c10.322,-4.759 18.406,-17.392 18.406,-28.756l0,-44.196c0,-11.37 -8.085,-24.001 -18.406,-28.756l-98.914,-45.613l98.916,-45.609c10.321,-4.76 18.406,-17.392 18.406,-28.757zm-152.341,86.463c4.702,2.166 8.984,8.857 8.984,14.037l0,16.592c-0.721,-0.424 -1.455,-0.808 -2.201,-1.152l-116.39,-53.669c-4.704,-2.167 -8.986,-8.859 -8.986,-14.038c-0.001,-4.562 3.321,-10.291 7.328,-13.076l111.265,51.306zm-118.595,110.503l0,0c0,-5.179 4.284,-11.87 8.987,-14.039l111.262,-51.303c4.005,2.788 7.329,8.517 7.329,13.076c0,5.179 -4.284,11.87 -8.987,14.039l-116.39,53.671c-0.746,0.344 -1.48,0.729 -2.201,1.152l0,-16.596zm-16.207,0l0,25.395l-73.794,-34.027l98.915,-45.61c10.323,-4.76 18.408,-17.392 18.408,-28.756l0,-25.394l73.792,34.026l-98.913,45.61c-10.321,4.758 -18.408,17.389 -18.408,28.756zm141.585,-23.512c10.323,-4.758 18.408,-17.391 18.408,-28.756l0,-12.821l84.48,38.955l-98.918,45.61c-10.321,4.762 -18.405,17.393 -18.405,28.756l0,12.82l-84.477,-38.954l98.912,-45.61zm-125.378,-169.418l0,0c0,-5.181 4.283,-11.872 8.987,-14.039l116.39,-53.671c0.745,-0.344 1.48,-0.729 2.201,-1.152l0,16.594c0,5.179 -4.284,11.87 -8.987,14.039l-116.388,53.669c-0.747,0.344 -1.482,0.729 -2.203,1.152l0,-16.592zm-107.477,27.505c-4.703,-2.168 -8.985,-8.86 -8.985,-14.039l0,-16.592c0.72,0.422 1.454,0.807 2.199,1.15l98.058,45.217l0,0.956c0,11.366 8.086,23.999 18.408,28.756l8.914,4.11l0,5.263c-0.721,-0.424 -1.455,-0.808 -2.201,-1.152l-116.393,-53.669zm-8.986,134.693c0,-5.181 4.282,-11.872 8.985,-14.039l111.266,-51.303c4.004,2.785 7.327,8.515 7.327,13.076c0,5.179 -4.284,11.87 -8.987,14.039l-116.394,53.667c-0.744,0.344 -1.478,0.728 -2.198,1.151l0,-16.591l0.001,0zm118.591,154.701l-116.393,53.671c-0.746,0.344 -1.479,0.728 -2.199,1.151l0,-16.593c0,-5.178 4.284,-11.869 8.985,-14.039l111.263,-51.303c4.006,2.784 7.33,8.515 7.33,13.077c0.001,5.177 -4.283,11.867 -8.986,14.036zm8.988,-41.641l-0.001,0c-0.721,-0.424 -1.455,-0.808 -2.201,-1.152l-116.391,-53.671c-4.703,-2.169 -8.985,-8.86 -8.985,-14.039c0,-4.561 3.322,-10.289 7.327,-13.076l92.93,42.85l0,0.958c0,11.365 8.085,23.996 18.408,28.754l8.914,4.111l0,5.265l-0.001,0zm116.463,30.73c-0.721,-0.424 -1.455,-0.808 -2.201,-1.152l-116.39,-53.671c-4.703,-2.17 -8.987,-8.86 -8.987,-14.037c0,-4.562 3.323,-10.292 7.331,-13.077l111.258,51.302c4.704,2.172 8.989,8.864 8.989,14.041l0,16.594zm118.162,17.597c4.704,2.172 8.987,8.863 8.987,14.041l0,16.593c-0.72,-0.422 -1.454,-0.807 -2.199,-1.151l-108.744,-50.144l0,-13.531c0,-4.906 -1.513,-10.047 -4.058,-14.691l106.014,48.883zm0.003,-120.652l-116.4,53.673c-0.74,0.341 -1.471,0.737 -2.193,1.159l0,-16.603c0,-5.179 4.284,-11.87 8.985,-14.039l111.265,-51.305c4.005,2.788 7.328,8.517 7.328,13.076c0,5.178 -4.283,11.87 -8.985,14.039zm0.001,-72.274c4.702,2.166 8.984,8.858 8.984,14.038l0,16.59c-0.72,-0.422 -1.454,-0.807 -2.199,-1.151l-108.745,-50.143l0,-13.528c0,-4.907 -1.513,-10.047 -4.054,-14.69l106.014,48.884zm-0.001,-120.655l-116.396,53.669c-0.741,0.341 -1.474,0.725 -2.198,1.148l0,-16.588c0,-5.18 4.282,-11.871 8.985,-14.039l116.395,-53.671c0.746,-0.344 1.479,-0.728 2.199,-1.151l0,16.593c0,5.178 -4.283,11.869 -8.985,14.039z"/>
    </g>
   </g>
   <g/>
   <g/>
   <g/>
   <g/>
   <g/>
   <g/>
   <g/>
   <g/>
   <g/>
   <g/>
   <g/>
   <g/>
   <g/>
   <g/>
   <g/>
  </g>
 </g>

</svg>