<?xml version="1.0" encoding="iso-8859-1"?>
<svg version="1.1" xmlns="http://www.w3.org/2000/svg" xmlns:xlink="http://www.w3.org/1999/xlink" x="0px" y="0px"
	 viewBox="0 0 299.111 299.111" style="enable-background:new 0 0 299.111 299.111;" xml:space="preserve" fill="#F6E05E">
<g>
	<g>
		<path d="M144.536,101.377c1.409,0.667,2.929,1.006,4.455,1.006c1.489,0,2.977-0.318,4.354-0.959l41.699-19.319
			c3.666-1.7,6.007-5.371,6.007-9.408v-62.33c0-5.721-4.64-10.367-10.367-10.367H108.42C102.695,0,98.06,4.64,98.06,10.367v62.337
			c0,3.994,2.299,7.639,5.906,9.36l5.054,2.405l-7.623,150.159c-0.117,2.352,0.567,4.677,1.949,6.59l38.712,53.597
			c1.949,2.702,5.075,4.296,8.401,4.296h0.117c3.369-0.042,6.51-1.716,8.423-4.487l36.911-53.597
			c1.293-1.875,1.928-4.126,1.817-6.404l-5.747-113.285c-0.281-5.514-4.831-9.837-10.351-9.837c-5.928,0-10.653,4.969-10.351,10.891
			l5.573,109.779l-26.586,38.595l-27.969-38.728l7.003-137.917L144.536,101.377z M118.786,66.156V20.728h61.537v45.354
			L149.049,80.57L118.786,66.156z"/>
	</g>
</g>
<g>
</g>
<g>
</g>
<g>
</g>
<g>
</g>
<g>
</g>
<g>
</g>
<g>
</g>
<g>
</g>
<g>
</g>
<g>
</g>
<g>
</g>
<g>
</g>
<g>
</g>
<g>
</g>
<g>
</g>
</svg>
